<?xml version="1.0" encoding="UTF-8" standalone="no"?>
<svg width="105px" height="84px" viewBox="0 0 105 84" version="1.1" xmlns="http://www.w3.org/2000/svg" xmlns:xlink="http://www.w3.org/1999/xlink">
    <!-- Generator: Sketch 47.1 (45422) - http://www.bohemiancoding.com/sketch -->
    <title>Group 26</title>
    <desc>Created with Sketch.</desc>
    <defs></defs>
    <g id="Page-1" stroke="none" stroke-width="1" fill="none" fill-rule="evenodd">
        <g id="01---1" transform="translate(-412.000000, -1157.000000)">
            <g id="Group-23" transform="translate(100.000000, 1128.000000)">
                <g id="Group-26" transform="translate(314.000000, 24.000000)">
                    <circle id="Oval-4" stroke="#9F9F9C" stroke-width="3" opacity="0.300000012" cx="36.5" cy="50.5" r="36.5"></circle>
                    <g id="Group-5" transform="translate(1.000000, 0.000000)" fill="#3BB54A">
                        <g id="Group-3" transform="translate(39.000000, 27.000000)">
                            <path d="M32.163233,16.3741906 L18.9543107,3.14393842 C17.5705894,1.75798204 19.6461713,-0.32095142 21.0298932,1.06500422 L34.2388155,14.2952564 C35.6225367,15.6812127 33.5469549,17.7601462 32.163233,16.3741906 Z M60.0487357,44.3047228 L46.8398134,31.0744707 C45.4560922,29.6885143 47.531674,27.6095809 48.9153959,28.9955365 L62.1243183,42.2257886 C63.5080395,43.611745 61.4324577,45.6906785 60.0487357,44.3047228 Z M37.1754745,24.1548915 L1.46765804,24.1548915 C0.657093252,24.1548915 -7.10542736e-15,23.4967372 -7.10542736e-15,22.6848635 C-7.10542736e-15,21.8729898 0.657093252,21.2148355 1.46765804,21.2148355 L37.1754745,21.2148355 C37.7416647,19.9168706 39.0347309,19.0097935 40.5393145,19.0097935 C42.5657275,19.0097935 44.2084596,20.6551782 44.2084596,22.6848635 C44.2084596,24.7145488 42.5657275,26.3599336 40.5393145,26.3599336 C39.0347309,26.3599336 37.7416647,25.4528564 37.1754745,24.1548915 Z M42.0069725,10.9246394 C42.0069725,11.7365131 41.3498792,12.3946674 40.5393145,12.3946674 C39.7287497,12.3946674 39.0716564,11.7365131 39.0716564,10.9246394 L39.0716564,2.10447132 C39.0716564,1.29259763 39.7287497,0.634443307 40.5393145,0.634443307 C41.3498792,0.634443307 42.0069725,1.29259763 42.0069725,2.10447132 L42.0069725,10.9246394 Z M42.0069725,43.2652557 C42.0069725,44.0771294 41.3498792,44.7352837 40.5393145,44.7352837 C39.7287497,44.7352837 39.0716564,44.0771294 39.0716564,43.2652557 L39.0716564,34.4450876 C39.0716564,33.633214 39.7287497,32.9750596 40.5393145,32.9750596 C41.3498792,32.9750596 42.0069725,33.633214 42.0069725,34.4450876 L42.0069725,43.2652557 Z M52.2805788,24.1548915 C51.470014,24.1548915 50.8129207,23.4967372 50.8129207,22.6848635 C50.8129207,21.8729898 51.470014,21.2148355 52.2805788,21.2148355 L61.086527,21.2148355 C61.8970918,21.2148355 62.554185,21.8729898 62.554185,22.6848635 C62.554185,23.4967372 61.8970918,24.1548915 61.086527,24.1548915 L52.2805788,24.1548915 Z M48.9153959,16.3741906 C48.3422395,16.9482718 47.4129698,16.9482718 46.8398134,16.3741906 C46.2666577,15.8001086 46.2666577,14.8693383 46.8398134,14.2952564 L60.0487357,1.06500422 C60.6218921,0.490923002 61.5511618,0.490923002 62.1243183,1.06500422 C62.697474,1.63908618 62.697474,2.56985647 62.1243183,3.14393842 L48.9153959,16.3741906 Z M21.0298932,44.3047228 C20.4567368,44.878804 19.5274671,44.878804 18.9543107,44.3047228 C18.381155,43.7306409 18.381155,42.7998706 18.9543107,42.2257886 L32.163233,28.9955365 C32.7363894,28.4214553 33.6656591,28.4214553 34.2388155,28.9955365 C34.8119712,29.5696185 34.8119712,30.5003887 34.2388155,31.0744707 L21.0298932,44.3047228 Z" id="Shape" transform="translate(31.290323, 22.684864) rotate(-180.000000) translate(-31.290323, -22.684864) "></path>
                        </g>
                        <path d="M7.50427692,7.68662118 C7.32298731,7.35615612 7.44315642,6.94177987 7.77362148,6.76359808 L12.7140223,4.07222434 C13.0424155,3.89093473 13.452648,4.0100679 13.6349735,4.34467672 L15.615692,7.95907356 C23.1045068,5.71419023 31.4044631,8.90695923 35.3016717,16.0435542 L25.7295803,21.2698746 C27.3114617,24.1642928 26.241335,27.8004443 23.3417372,29.3875054 C20.4359237,30.9673148 16.8039159,29.900296 15.2168549,27.0048419 L5.64061973,32.2239108 C1.73926734,25.0904237 3.53248056,16.3843787 9.48292351,11.3041258 L7.50427692,7.68662118 Z" id="Shape" fill-rule="nonzero" transform="translate(19.435576, 18.105795) rotate(-12.000000) translate(-19.435576, -18.105795) "></path>
                    </g>
                </g>
            </g>
        </g>
    </g>
</svg>