<?xml version="1.0" encoding="UTF-8" standalone="no"?>
<svg width="43px" height="32px" viewBox="0 0 43 32" version="1.1" xmlns="http://www.w3.org/2000/svg" xmlns:xlink="http://www.w3.org/1999/xlink">
    <!-- Generator: Sketch 47.1 (45422) - http://www.bohemiancoding.com/sketch -->
    <title>“</title>
    <desc>Created with Sketch.</desc>
    <defs></defs>
    <g id="Page-1" stroke="none" stroke-width="1" fill="none" fill-rule="evenodd">
        <g id="01---1" transform="translate(-114.000000, -2103.000000)" fill="#3BB54A">
            <path d="M157,2107.99783 C151.377249,2110.77442 148.565916,2114.03686 148.565916,2117.78525 C150.962499,2118.06291 152.944258,2119.04627 154.511254,2120.73536 C156.07825,2122.42445 156.861736,2124.3796 156.861736,2126.60087 C156.861736,2128.96097 156.101294,2130.95082 154.580386,2132.5705 C153.059478,2134.19017 151.14685,2135 148.842444,2135 C146.261509,2135 144.026269,2133.94723 142.136656,2131.84165 C140.247043,2129.73607 139.302251,2127.17934 139.302251,2124.17137 C139.302251,2115.14746 144.32578,2108.09041 154.37299,2103 L157,2107.99783 Z M131.697749,2107.99783 C126.028911,2110.77442 123.194534,2114.03686 123.194534,2117.78525 C125.637204,2118.06291 127.642007,2119.04627 129.209003,2120.73536 C130.775999,2122.42445 131.559486,2124.3796 131.559486,2126.60087 C131.559486,2128.96097 130.787521,2130.95082 129.243569,2132.5705 C127.699617,2134.19017 125.775467,2135 123.471061,2135 C120.890126,2135 118.666408,2133.94723 116.799839,2131.84165 C114.93327,2129.73607 114,2127.17934 114,2124.17137 C114,2115.14746 119.000486,2108.09041 129.001608,2103 L131.697749,2107.99783 Z" id="“"></path>
        </g>
    </g>
</svg>