<?xml version="1.0" encoding="UTF-8" standalone="no"?>
<svg width="85px" height="73px" viewBox="0 0 85 73" version="1.1" xmlns="http://www.w3.org/2000/svg" xmlns:xlink="http://www.w3.org/1999/xlink">
    <!-- Generator: Sketch 47.1 (45422) - http://www.bohemiancoding.com/sketch -->
    <title>Group 14</title>
    <desc>Created with Sketch.</desc>
    <defs></defs>
    <g id="Page-1" stroke="none" stroke-width="1" fill="none" fill-rule="evenodd">
        <g id="03---1" transform="translate(-129.000000, -1011.000000)">
            <g id="Group-3" transform="translate(131.000000, 761.000000)">
                <g id="Group-14" transform="translate(0.000000, 252.000000)">
                    <g id="Group-11">
                        <circle id="Oval-4" stroke="#9F9F9C" stroke-width="3" opacity="0.300000012" cx="32.8280116" cy="32.8280116" r="32.8280116"></circle>
                        <path d="M57.9560426,41.000614 C55.6528532,41.000614 53.348476,41.9112863 51.6062823,43.7163755 C48.1254585,47.3226778 48.1370248,53.1151937 51.6062823,56.7283919 C56.1206935,61.6382447 60.5009358,65.993979 64.9505133,70.6194265 C65.4163529,71.1120248 66.3015794,71.1120248 66.7674815,70.6194265 C71.2256243,66.0005437 75.6730761,61.366656 80.1312189,56.7477732 C83.6156063,53.137701 83.6156063,47.3457478 80.1312189,43.7356943 C76.6468315,40.1256409 70.9162108,40.1255158 67.4317608,43.7356943 L65.8687506,45.3377798 L64.3057404,43.716188 C62.6060605,41.8739616 60.0654187,40.9730425 57.9560426,41.000614 Z" id="Shape-Copy" fill="#3BB54A" fill-rule="nonzero"></path>
                        <path d="M52.0736511,1.00034784 C50.7688807,1.00034784 49.4634374,1.51624907 48.4764743,2.53884281 C46.5045671,4.58183436 46.5111194,7.86332888 48.4764743,9.91022706 C51.033915,12.6916877 53.5153482,15.159237 56.0360602,17.7795803 C56.299961,18.0586402 56.8014471,18.0586402 57.0653834,17.7795803 C59.5909476,15.1629559 62.1104554,12.5378311 64.6360197,9.92120669 C66.6099458,7.87607943 66.6099458,4.59490367 64.6360197,2.54978703 C62.6620936,0.504670389 59.4156631,0.504599552 57.4417015,2.54978703 L56.556247,3.45737793 L55.6707925,2.53873656 C54.7079138,1.49510442 53.2686251,0.984728422 52.0736511,1.00034784 Z" id="Shape-Copy-2" stroke="#3BB54A" stroke-width="3" fill-rule="nonzero"></path>
                        <g id="Group-10" transform="translate(21.885341, 20.885341)" fill="#3BB54A">
                            <circle id="Oval-3" cx="2.57474601" cy="2.57474601" r="2.57474601"></circle>
                            <circle id="Oval-3-Copy" cx="19.3105951" cy="2.57474601" r="2.57474601"></circle>
                            <path d="M2.5870067,17.7419794 C2.5870067,17.0305526 2.0049302,16.4484761 1.29350335,16.4484761 C0.582076508,16.4484761 0,17.0305526 0,17.7419794 C0,23.0453431 5.10933824,27.3139042 11.3181543,27.3139042 C17.5269704,27.3139042 22.6363087,23.0453431 22.6363087,17.7419794 C22.6363087,17.0305526 22.0542322,16.4484761 21.3428053,16.4484761 C20.6313785,16.4484761 20.049302,17.0305526 20.049302,17.7419794 C20.049302,21.6224895 16.1041167,24.7268975 11.3181543,24.7268975 C6.53219193,24.7915727 2.5870067,21.6224895 2.5870067,17.7419794 Z" id="Shape" fill-rule="nonzero"></path>
                        </g>
                    </g>
                </g>
            </g>
        </g>
    </g>
</svg>