<?xml version="1.0" encoding="UTF-8" standalone="no"?>
<svg width="32px" height="30px" viewBox="0 0 32 30" version="1.1" xmlns="http://www.w3.org/2000/svg" xmlns:xlink="http://www.w3.org/1999/xlink">
    <!-- Generator: Sketch 47.1 (45422) - http://www.bohemiancoding.com/sketch -->
    <title>Shape</title>
    <desc>Created with Sketch.</desc>
    <defs></defs>
    <g id="Page-1" stroke="none" stroke-width="1" fill="none" fill-rule="evenodd" opacity="0.119999997">
        <g id="10---1" transform="translate(-648.000000, -307.000000)" fill-rule="nonzero" fill="#000000">
            <path d="M658.297619,307.904762 C656.811867,307.904762 655.619048,309.097581 655.619048,310.583333 L655.619048,311.714286 L668.940476,311.714286 C671.2418,311.714286 673.142857,313.615345 673.142857,315.916667 L673.142857,326.559524 C673.142857,327.121899 673.026583,327.662089 672.821429,328.154762 L676.190476,331.52381 L676.190476,324.666667 L677.321429,324.666667 C678.807181,324.666667 680,323.473848 680,321.988095 L680,310.583333 C680,309.097585 678.807181,307.904762 677.321429,307.904762 L658.297619,307.904762 Z M650.678571,313.238095 C649.192819,313.238095 648,314.430914 648,315.916667 L648,326.559524 C648,328.045276 649.192819,329.238095 650.678571,329.238095 L651.809524,329.238095 L651.809524,336.095238 L658.666667,329.238095 L668.940476,329.238095 C670.426229,329.238095 671.619048,328.045276 671.619048,326.559524 L671.619048,315.916667 C671.619048,314.430914 670.426229,313.238095 668.940476,313.238095 L650.678571,313.238095 Z M654.47619,319.714286 C655.317752,319.714286 656,320.396526 656,321.238095 C656,322.079695 655.317752,322.761905 654.47619,322.761905 C653.634629,322.761905 652.952381,322.079695 652.952381,321.238095 C652.952381,320.396526 653.634629,319.714286 654.47619,319.714286 Z M659.809524,319.714286 C660.651086,319.714286 661.333333,320.396526 661.333333,321.238095 C661.333333,322.079695 660.651086,322.761905 659.809524,322.761905 C658.967962,322.761905 658.285714,322.079695 658.285714,321.238095 C658.285714,320.396526 658.967962,319.714286 659.809524,319.714286 Z M665.142857,319.714286 C665.984457,319.714286 666.666667,320.396526 666.666667,321.238095 C666.666667,322.079695 665.984457,322.761905 665.142857,322.761905 C664.301295,322.761905 663.619048,322.079695 663.619048,321.238095 C663.619048,320.396526 664.301295,319.714286 665.142857,319.714286 Z" id="Shape"></path>
        </g>
    </g>
</svg>