<?xml version="1.0" encoding="UTF-8"?>
<svg width="68px" height="51px" viewBox="0 0 68 51" version="1.1" xmlns="http://www.w3.org/2000/svg" xmlns:xlink="http://www.w3.org/1999/xlink">
    <!-- Generator: Sketch 48.2 (47327) - http://www.bohemiancoding.com/sketch -->
    <title>Group 3</title>
    <desc>Created with Sketch.</desc>
    <defs></defs>
    <g id="12" stroke="none" stroke-width="1" fill="none" fill-rule="evenodd" transform="translate(-607.000000, -259.000000)">
        <g id="Group-3" transform="translate(607.000000, 259.000000)">
            <path d="M28.9870057,35.0055804 L27.5558833,35.0055804 L27.5558833,37.4693878 L25.1002073,37.4693878 L25.1002073,35.0055804 L20.0262277,35.0055804 L20.0262277,33.2573342 L25.2384407,25.5813138 L27.5558833,25.5813138 L27.5558833,33.0540497 L28.9870057,33.0540497 L28.9870057,35.0055804 Z M25.1002073,33.0540497 L25.1002073,31.0374681 C25.1002073,30.7013695 25.1137594,30.2134917 25.1408642,29.5738202 C25.1679689,28.9341486 25.1896523,28.5628194 25.2059152,28.4598214 L25.1408642,28.4598214 C24.9402892,28.904339 24.6990607,29.3380081 24.4171716,29.7608418 L22.2379624,33.0540497 L25.1002073,33.0540497 Z M38.1591996,31.5253508 C38.1591996,33.6015729 37.8190404,35.1383879 37.1387117,36.1358418 C36.4583831,37.1332958 35.4108011,37.6320153 33.9959343,37.6320153 C32.6244351,37.6320153 31.5904053,37.1170332 30.8938138,36.0870536 C30.1972223,35.0570739 29.8489318,33.5365215 29.8489318,31.5253508 C29.8489318,29.4274449 30.1877358,27.8811434 30.865354,26.8863999 C31.5429721,25.8916564 32.5864885,25.3942921 33.9959343,25.3942921 C35.3674335,25.3942921 36.4041738,25.9146951 37.1061862,26.9555166 C37.8081987,27.9963381 38.1591996,29.5196009 38.1591996,31.5253508 Z M32.3452647,31.5253508 C32.3452647,32.9835851 32.4712998,34.0284567 32.7233737,34.6599968 C32.9754477,35.291537 33.3996303,35.6073023 33.9959343,35.6073023 C34.5813964,35.6073023 35.0042238,35.2874713 35.2644292,34.6477997 C35.5246346,34.0081282 35.6547353,32.9673223 35.6547353,31.5253508 C35.6547353,30.0671164 35.5232794,29.0195344 35.2603635,28.3825733 C34.9974477,27.7456122 34.5759755,27.4271365 33.9959343,27.4271365 C33.4050513,27.4271365 32.9822239,27.7456122 32.7274394,28.3825733 C32.472655,29.0195344 32.3452647,30.0671164 32.3452647,31.5253508 Z M47.9981665,35.0055804 L46.567044,35.0055804 L46.567044,37.4693878 L44.111368,37.4693878 L44.111368,35.0055804 L39.0373884,35.0055804 L39.0373884,33.2573342 L44.2496014,25.5813138 L46.567044,25.5813138 L46.567044,33.0540497 L47.9981665,33.0540497 L47.9981665,35.0055804 Z M44.111368,33.0540497 L44.111368,31.0374681 C44.111368,30.7013695 44.1249201,30.2134917 44.1520249,29.5738202 C44.1791296,28.9341486 44.2008131,28.5628194 44.2170759,28.4598214 L44.1520249,28.4598214 C43.9514499,28.904339 43.7102214,29.3380081 43.4283323,29.7608418 L41.2491231,33.0540497 L44.111368,33.0540497 Z" id="404" fill="#3BB54A"></path>
            <g id="noun_1044139_cc" fill="#000000" fill-rule="nonzero">
                <path d="M58.0081633,0 L9.5755102,0 C4.30204082,0 0,4.7877551 0,10.6163265 L0,40.0367347 C0,45.8653061 4.30204082,50.6530612 9.5755102,50.6530612 L57.9387755,50.6530612 C63.2122449,50.6530612 67.5142857,45.8653061 67.5142857,40.0367347 L67.5142857,10.6163265 C67.5836735,4.71836735 63.2816327,0 58.0081633,0 Z M9.5755102,3.74693878 L57.9387755,3.74693878 C61.1306122,3.74693878 63.7673469,6.8 63.7673469,10.6163265 L63.7673469,12.3510204 L3.81632653,12.3510204 L3.81632653,10.6163265 C3.81632653,6.8 6.38367347,3.74693878 9.5755102,3.74693878 Z M58.0081633,46.8367347 L9.5755102,46.8367347 C6.38367347,46.8367347 3.74693878,43.7836735 3.74693878,39.9673469 L3.74693878,16.1673469 L63.7673469,16.1673469 L63.7673469,40.0367347 C63.7673469,43.7836735 61.2,46.8367347 58.0081633,46.8367347 Z" id="Shape"></path>
                <circle id="Oval" cx="41.0081633" cy="7.91020408" r="2.35918367"></circle>
                <circle id="Oval" cx="48.2938776" cy="7.91020408" r="2.35918367"></circle>
                <circle id="Oval" cx="55.9959184" cy="7.91020408" r="2.35918367"></circle>
            </g>
        </g>
    </g>
</svg>