<?xml version="1.0" encoding="UTF-8" standalone="no"?>
<svg width="93px" height="81px" viewBox="0 0 93 81" version="1.1" xmlns="http://www.w3.org/2000/svg" xmlns:xlink="http://www.w3.org/1999/xlink">
    <!-- Generator: Sketch 47.1 (45422) - http://www.bohemiancoding.com/sketch -->
    <title>Group 25</title>
    <desc>Created with Sketch.</desc>
    <defs></defs>
    <g id="Page-1" stroke="none" stroke-width="1" fill="none" fill-rule="evenodd">
        <g id="01---1" transform="translate(-130.000000, -1156.000000)">
            <g id="Group-23" transform="translate(100.000000, 1128.000000)">
                <g id="Group-25" transform="translate(32.000000, 28.000000)">
                    <circle id="Oval-4" stroke="#9F9F9C" stroke-width="3" opacity="0.300000012" cx="35" cy="43" r="35"></circle>
                    <g id="Group-12" transform="translate(17.000000, 0.000000)" fill="#3BB54A">
                        <path d="M17.7989214,75.0564699 L17.7989215,75.0564699 C17.1597376,75.0555579 16.6066436,74.6115363 16.4675693,73.9876654 C16.3742809,73.5665438 16.2716719,73.1387491 16.1597149,72.7069559 L16.1597149,72.7069559 C15.9705411,71.977561 16.4084767,71.2329145 17.1378716,71.0437312 C17.8672666,70.8545575 18.611913,71.292493 18.8010963,72.021888 C18.8010963,72.021888 18.8010963,72.021888 18.8010963,72.021888 C18.9210411,72.4856648 19.0316521,72.9436636 19.1329279,73.3958858 L19.1329279,73.3958859 C19.295529,74.1317658 18.8316552,74.860361 18.0960975,75.0244209 L18.0960976,75.0244208 C17.9984579,75.04561 17.8988409,75.0563511 17.7989284,75.056463 L17.7989214,75.0564699 Z" id="Shape" fill-rule="nonzero"></path>
                        <path d="M15.8812416,68.5130718 L15.8812415,68.5130718 C15.2988509,68.5126274 14.780841,68.1428508 14.5912114,67.5921968 C14.4459471,67.172399 14.2971305,66.74994 14.1447617,66.32482 L14.1447616,66.3248199 C13.8816531,65.6185532 14.2409027,64.832724 14.9471688,64.5696168 C15.6534354,64.3065083 16.4392647,64.6657579 16.7023718,65.372024 C16.705496,65.3804104 16.7085377,65.3888274 16.7114963,65.3972736 C16.870088,65.8357222 17.0233452,66.2715044 17.1712651,66.7046213 L17.1712652,66.7046214 C17.4159712,67.4178874 17.0361288,68.1944792 16.3228634,68.439177 C16.1807227,68.4879423 16.0315077,68.5129083 15.881235,68.513068 L15.8812416,68.5130718 Z" id="Shape" fill-rule="nonzero"></path>
                        <path d="M13.4983888,62.0748482 L13.4983888,62.0748482 C12.9517332,62.0802225 12.459233,61.7455153 12.2629998,61.2352663 L12.2203541,61.1246603 L11.7752417,59.942575 L11.7752417,59.942575 C11.5056401,59.238762 11.857639,58.4496467 12.5614517,58.1800574 C13.2652647,57.9104558 14.05438,58.2624547 14.3239693,58.9662674 C14.3264452,58.9727308 14.3288719,58.9792131 14.3312491,58.9857134 L14.7843174,60.1864536 L14.7843175,60.1864537 C15.054888,60.8954074 14.7115271,61.6908725 14.0100346,61.9802358 L14.0100346,61.9802358 C13.8466038,62.0424395 13.6732506,62.0744969 13.4983826,62.0748528 L13.4983888,62.0748482 Z" id="Shape" fill-rule="nonzero"></path>
                        <path d="M11.1847928,55.6992901 L11.1847927,55.6992901 C10.6022806,55.6992278 10.0840701,55.3293093 9.89476257,54.7784151 C9.74283048,54.3373012 9.59579207,53.8992947 9.45364871,53.4643942 L9.45364873,53.4643942 C9.22201346,52.7474587 9.61542687,51.9784939 10.3323624,51.7468559 C11.0458836,51.5163233 11.8117123,51.9048785 12.0470486,52.616829 C12.1856438,53.0379546 12.3282416,53.4626338 12.4748433,53.8908652 L12.4748433,53.8908653 C12.7195494,54.6041313 12.339707,55.3807232 11.6264416,55.625421 C11.4843009,55.6741863 11.3350859,55.6991523 11.1848132,55.6993119 L11.1847928,55.6992901 Z" id="Shape" fill-rule="nonzero"></path>
                        <path d="M9.2911037,49.146585 L9.29110363,49.146585 C8.64475256,49.1457145 8.087499,48.6919077 7.95575302,48.0591255 C7.85979902,47.5926835 7.77272843,47.1284659 7.69454276,46.6664726 L7.69454276,46.6664726 C7.5701549,45.9230926 8.07194729,45.219629 8.81532731,45.0952399 C9.55870733,44.9708521 10.2621709,45.4726445 10.38656,46.2160245 C10.4585187,46.6438192 10.538488,47.0729377 10.6291017,47.5047309 L10.6291017,47.5047308 C10.7818935,48.2429019 10.3076743,48.9652621 9.56961781,49.1186093 L9.56961793,49.1186093 C9.47792714,49.1370804 9.38463642,49.1464511 9.29110374,49.146585 L9.2911037,49.146585 Z" id="Shape" fill-rule="nonzero"></path>
                        <path d="M8.61942993,42.372545 L8.59943761,42.372545 L8.59943762,42.372545 C7.84576804,42.3614716 7.24375761,41.7415587 7.25476635,40.9878891 C7.26142591,40.5161249 7.28008086,40.041686 7.30798823,39.5659097 L7.30798822,39.5659098 C7.35343384,38.8137646 8.00000913,38.2408706 8.75215711,38.2863166 C9.50248736,38.3316527 10.0747986,38.975353 10.0320232,39.725832 C10.0067042,40.1616141 9.99071036,40.5956236 9.98404166,41.0278575 L9.98404169,41.0278555 C9.97299833,41.773651 9.36531141,42.3724667 8.61943405,42.3725431 L8.61942993,42.372545 Z" id="Shape" fill-rule="nonzero"></path>
                        <path d="M36.2218798,80.5151515 L36.2218798,80.5151515 C35.4686346,80.5155888 34.8576529,79.9053175 34.8572162,79.1520709 C34.8572159,79.1515431 34.8572159,79.1510153 34.8572162,79.1504875 L34.8572162,51.8572158 L34.8572162,51.857216 C34.8572161,51.1035327 35.4681966,50.4925524 36.2218798,50.4925524 C36.975563,50.4925523 37.5865434,51.1035327 37.5865434,51.857216 C37.5865434,51.857216 37.5865434,51.857216 37.5865434,51.857216 L37.5865434,79.1504877 L37.5865434,79.1504638 C37.5869938,79.903709 36.9767325,80.5147002 36.2234874,80.5151547 C36.2229596,80.515155 36.2224317,80.515155 36.2219039,80.5151547 L36.2218798,80.5151515 Z" id="Shape" fill-rule="nonzero"></path>
                        <path d="M36.2219071,25.9285672 L36.2219131,25.9285671 C26.5328835,26.0534858 16.8562451,25.1925917 7.34140116,23.3591785 L7.341401,23.3591785 C6.60464642,23.1987268 6.1374593,22.4713966 6.29791099,21.734642 C6.45836267,20.9978874 7.18569288,20.5307003 7.92244746,20.691152 L7.92244116,20.6911508 C17.2461503,22.4844006 26.7280512,23.3247604 36.2218793,23.1992387 L36.2218741,23.1992386 C45.7156613,23.3247492 55.1975213,22.4843923 64.5213123,20.6911371 L64.5213121,20.6911371 C65.2580667,20.5306854 65.9853915,20.9978712 66.1458486,21.7346271 C66.3063003,22.4713817 65.8391145,23.1987064 65.1023586,23.3591636 L65.1023732,23.3591608 C55.5875702,25.1925863 45.9109727,26.0534843 36.2219977,25.928563 L36.2219071,25.9285672 Z" id="Shape" fill-rule="nonzero"></path>
                        <path d="M36.2218525,54.5865434 L36.2218525,54.5865434 C35.4686074,54.5869807 34.8576256,53.9767094 34.8571889,53.2234628 C34.8571886,53.222935 34.8571886,53.2224072 34.8571889,53.2218794 L34.8571889,53.2218655 C34.8560138,52.4410405 34.8088415,51.6609633 34.7159176,50.8856843 C32.7195649,33.7314536 7.98365908,30.3930771 5.1704051,30.0678778 L5.17040509,30.0678778 C4.42187347,29.9817619 3.88487971,29.3051468 3.97099544,28.5566084 C4.05711131,27.8080767 4.73372639,27.271083 5.48226484,27.3571987 L5.48226551,27.3571988 C11.148185,28.0448091 16.6813226,29.5662889 21.9021707,31.8723111 C31.1283064,36.1088955 36.4962925,42.57373 37.4265836,50.5671105 L37.4265835,50.5671095 C37.5325075,51.4480557 37.5858971,52.3345262 37.5864675,53.2218168 L37.5864675,53.221794 C37.5869179,53.9750391 36.9766567,54.5860304 36.2234115,54.5864848 C36.2228833,54.5864852 36.2223551,54.5864852 36.221827,54.5864849 L36.2218525,54.5865434 Z" id="Shape" fill-rule="nonzero"></path>
                        <path d="M36.2218798,54.5865434 L36.2218798,54.5865434 C35.4686346,54.5869807 34.8576529,53.9767094 34.8572162,53.2234628 C34.8572159,53.222935 34.8572159,53.2224072 34.8572162,53.2218794 L34.8572159,53.2223073 C34.857902,52.3336943 34.9112871,51.4458974 35.0170903,50.5636151 C35.9472996,42.5742058 41.3153266,36.1093713 50.5415033,31.8727732 L50.5415018,31.8727739 C55.7623908,29.5667517 61.2955285,28.0452746 66.961407,27.3576616 L66.961407,27.3576616 C67.7099386,27.2715457 68.3865524,27.8085396 68.4726764,28.5570712 C68.5587922,29.3056029 68.0217983,29.9822167 67.2732667,30.0683406 C64.4599854,30.3935127 39.7241206,33.7318756 37.7277542,50.8821896 L37.7277541,50.8821908 C37.6349709,51.6586543 37.5878037,52.439886 37.5864964,53.2218792 L37.5864964,53.2218542 C37.5869468,53.9750993 36.9766855,54.5860906 36.2234404,54.586545 C36.2229129,54.5865453 36.2223855,54.5865454 36.2218581,54.5865451 L36.2218798,54.5865434 Z" id="Shape" fill-rule="nonzero"></path>
                        <path d="M36.0206703,13.9742043 C36.7743535,13.9742042 37.3853339,13.363224 37.3853339,12.6095408 C37.3853338,11.8558577 37.9963142,11.2448774 38.7499975,11.2448774 C39.5036807,11.2448773 40.114661,11.8558577 40.114661,12.609541 C40.1121935,14.8695757 38.2806897,16.7010634 36.0206703,16.7035334 C34.8929702,16.7023014 35.2872305,15.7970147 35.3566149,15.6571696 C35.6109094,15.1446356 35.724004,13.9742043 36.0206703,13.9742043 Z" id="Shape" fill-rule="nonzero" transform="translate(37.674157, 13.974205) rotate(-345.000000) translate(-37.674157, -13.974205) "></path>
                        <path d="M13.0158263,79.0146988 C12.085371,69.7101458 9.74517861,62.2215302 5.9700861,56.5588914 C2.58337754,51.4788286 2.15152562,44.1373458 4.78653183,34.4756564 C9.3526207,21.7025588 11.6579353,10.6370488 11.6579353,1.36466359 C11.6579353,0.610980698 11.0469546,0 10.2932717,0 C9.53958881,0 8.92860812,0.610980698 8.92860812,1.36466359 C8.92860812,10.2877929 6.68504408,21.0569002 2.18479288,33.6576036 C-0.670272406,44.1108993 -0.19234861,52.2356039 3.69914862,58.0728497 C7.20226189,63.3275196 9.41094812,70.3953156 10.3000443,79.286277 C10.3750385,80.0362195 11.0437819,80.5833732 11.7937244,80.5083789 C12.5436669,80.4333847 13.0908206,79.7646413 13.0158263,79.0146988 Z" id="Path-4" fill-rule="nonzero"></path>
                        <path d="M73.061024,79.0146988 C72.1305687,69.7101458 69.7903764,62.2215302 66.0152838,56.5588914 C62.6285753,51.4788286 62.1967234,44.1373458 64.8317296,34.4756564 C69.3978184,21.7025588 71.703133,10.6370488 71.703133,1.36466359 C71.703133,0.610980698 71.0921523,0 70.3384694,0 C69.5847866,0 68.9738059,0.610980698 68.9738059,1.36466359 C68.9738059,10.2877929 66.7302418,21.0569002 62.2299906,33.6576036 C59.3749253,44.1108993 59.8528491,52.2356039 63.7443464,58.0728497 C67.2474596,63.3275196 69.4561459,70.3953156 70.345242,79.286277 C70.4202363,80.0362195 71.0889796,80.5833732 71.8389221,80.5083789 C72.5888646,80.4333847 73.1360183,79.7646413 73.061024,79.0146988 Z" id="Path-4" fill-rule="nonzero" transform="translate(66.734959, 40.257627) scale(-1, 1) translate(-66.734959, -40.257627) "></path>
                        <path d="M7.56394453,21.8346174 L4.83461736,28.6579353 C21.2105804,31.3872625 31.2181133,37.3008047 34.8572162,46.3985619 C34.8572162,46.3985619 35.3121041,46.8534498 36.2218798,47.7632255 L37.5865434,45.0338983 C42.135422,36.8459168 52.142955,31.3872625 67.6091423,28.6579353 C67.6091423,28.6579353 67.1542544,26.383496 66.2444787,21.8346174 C55.32717,23.6541688 45.319637,24.5639445 36.2218798,24.5639445 C27.1241226,24.5639445 17.5714775,23.6541688 7.56394453,21.8346174 Z" id="Path-5"></path>
                    </g>
                </g>
            </g>
        </g>
    </g>
</svg>