<?xml version="1.0" encoding="UTF-8" standalone="no"?>
<svg width="67px" height="67px" viewBox="0 0 67 67" version="1.1" xmlns="http://www.w3.org/2000/svg" xmlns:xlink="http://www.w3.org/1999/xlink">
    <!-- Generator: Sketch 47.1 (45422) - http://www.bohemiancoding.com/sketch -->
    <title>Group 9</title>
    <desc>Created with Sketch.</desc>
    <defs></defs>
    <g id="Page-1" stroke="none" stroke-width="1" fill="none" fill-rule="evenodd">
        <g id="04---1" transform="translate(-716.000000, -470.000000)">
            <g id="Group-9" transform="translate(718.000000, 472.000000)">
                <circle id="Oval-4-Copy" stroke="#9F9F9C" stroke-width="3" opacity="0.5" cx="31.5" cy="31.5" r="31.5"></circle>
                <path d="M21.0352309,22 C19.9077129,22 19,22.907713 19,24.035231 L19,38.2818579 C19,39.4093758 19.9077129,40.3170888 21.0352309,40.3170888 L44.7795921,40.3170888 C45.9071101,40.3170888 46.8148231,39.4093758 46.8148231,38.2818579 L46.8148231,24.035231 C46.8148231,22.907713 45.9071101,22 44.7795921,22 L21.0352309,22 Z M22.4662696,25.3814684 C22.6877028,25.3611161 22.8779968,25.4434073 23.017478,25.5722374 L31.953397,33.8297901 C32.5100327,34.3446357 33.2822332,34.3446697 33.8402257,33.8297901 L42.797345,25.5722374 C43.0582277,25.3307912 43.5152388,25.3484637 43.756685,25.6093464 C43.9981313,25.8702291 43.9804587,26.3272402 43.719576,26.5686865 L38.6526989,31.2433508 L43.7089928,35.7378192 C44.0108854,35.9618642 44.0609521,36.4548989 43.8102795,36.7350484 C43.5596068,37.0152319 43.064062,37.0200486 42.8079621,36.7448854 L37.6562838,32.1656157 L34.7624567,34.8262392 C33.7093943,35.7979602 32.0837535,35.7998259 31.0311999,34.8262392 L28.1585393,32.1656157 L23.0068609,36.7448854 C22.750761,37.0200825 22.2552162,37.0152658 22.0045436,36.7350484 C21.7538709,36.4548989 21.8039376,35.9618642 22.1058302,35.7378192 L27.1621241,31.2433508 L22.095247,26.5686865 C21.8970494,26.396913 21.8137746,26.1039076 21.8920292,25.8535741 C21.9702499,25.6032747 22.2055565,25.409826 22.4662696,25.3814684 Z" id="Shape" fill="#000000" fill-rule="nonzero" opacity="0.200000003"></path>
            </g>
        </g>
    </g>
</svg>