<?xml version="1.0" encoding="UTF-8" standalone="no"?>
<svg width="17px" height="17px" viewBox="0 0 17 17" version="1.1" xmlns="http://www.w3.org/2000/svg" xmlns:xlink="http://www.w3.org/1999/xlink">
    <!-- Generator: Sketch 47.1 (45422) - http://www.bohemiancoding.com/sketch -->
    <title>Shape</title>
    <desc>Created with Sketch.</desc>
    <defs></defs>
    <g id="Page-1" stroke="none" stroke-width="1" fill="none" fill-rule="evenodd">
        <g id="10---1" transform="translate(-1065.000000, -313.000000)" fill-rule="nonzero" fill="#1D1D1B">
            <g id="Group-2" transform="translate(785.000000, 307.000000)">
                <g id="Group-3" transform="translate(0.000000, 6.000000)">
                    <path d="M295.952861,6.53191395 L294.411329,7.26348831 L294.411329,6.11387146 C294.411329,2.74340386 291.667926,0 288.297458,0 C284.92699,0 282.183586,2.74340386 282.183586,6.11387146 L282.183586,7.39412659 L280.380778,6.53191395 C279.46631,8.43923282 280.25014,10.7384665 282.183586,11.6790621 L282.183586,16.4604232 C282.183586,16.5649338 282.758395,16.6171891 283.045799,16.6171891 C284.48282,16.6171891 285.658565,15.4414446 285.658565,14.0044235 C285.658565,15.4414446 286.834309,16.6171891 288.27133,16.6171891 C289.708351,16.6171891 290.884096,15.4414446 290.884096,14.0044235 C290.884096,15.4414446 292.05984,16.6171891 293.496861,16.6171891 C293.810393,16.6171891 294.359074,16.5649338 294.359074,16.4604232 L294.359074,11.5484239 C296.135755,10.5294453 296.841201,8.36084985 295.952861,6.53191395 Z M284.796352,5.66970131 C284.796352,4.93812695 285.371161,4.36331852 286.102735,4.36331852 C286.834309,4.36331852 287.409118,4.93812695 287.409118,5.66970131 C287.409118,6.40127567 286.834309,6.9760841 286.102735,6.9760841 C285.371161,7.00221175 284.796352,6.40127567 284.796352,5.66970131 Z M288.27133,11.0258707 C286.808182,11.0258707 285.632437,9.79787092 285.632437,8.28246689 C287.853288,8.28246689 288.898394,8.28246689 290.910224,8.28246689 C290.910224,9.79787092 289.734479,11.0258707 288.27133,11.0258707 Z M290.466053,7.00221175 C289.734479,7.00221175 289.159671,6.42740333 289.159671,5.69582896 C289.159671,4.9642546 289.734479,4.38944617 290.466053,4.38944617 C291.197628,4.38944617 291.772436,4.9642546 291.772436,5.69582896 C291.798564,6.40127567 291.197628,7.00221175 290.466053,7.00221175 Z" id="Shape"></path>
                </g>
            </g>
        </g>
    </g>
</svg>