<?xml version="1.0" encoding="UTF-8" standalone="no"?>
<svg width="16px" height="16px" viewBox="0 0 16 16" version="1.1" xmlns="http://www.w3.org/2000/svg" xmlns:xlink="http://www.w3.org/1999/xlink">
    <!-- Generator: Sketch 47.1 (45422) - http://www.bohemiancoding.com/sketch -->
    <title>Shape</title>
    <desc>Created with Sketch.</desc>
    <defs></defs>
    <g id="Page-1" stroke="none" stroke-width="1" fill="none" fill-rule="evenodd">
        <g id="10---1" transform="translate(-928.000000, -314.000000)" fill-rule="nonzero" fill="#000000">
            <g id="Group-2" transform="translate(785.000000, 307.000000)">
                <g id="Group-4" transform="translate(143.000000, 0.000000)">
                    <path d="M2.06287107,7 C0.932941691,7 0,7.93294169 0,9.06287107 L0,20.9371289 C0,22.0670583 0.932941691,23 2.06287107,23 L13.9371289,23 C15.0670583,23 16,22.0680582 16,20.9371289 L16,9.06287107 C16,7.93294169 15.0680582,7 13.9371289,7 L2.06287107,7 Z M11.6562715,8.78088869 L13.4691582,8.78088869 C13.8651334,8.78088869 14.1881132,9.10386851 14.1881132,9.49984376 L14.1881132,11.2187363 C14.1881132,11.6147116 13.8651334,11.9376914 13.4691582,11.9376914 L11.6562715,11.9376914 C11.2602962,11.9376914 10.9373164,11.6147116 10.9373164,11.2187363 L10.9373164,9.49984376 C10.9373164,9.10386851 11.2602962,8.78088869 11.6562715,8.78088869 Z M8.03149803,11.8436973 C9.80538716,11.8436973 11.2192988,13.2486095 11.2192988,14.968502 C11.2192988,16.6883945 9.80738704,18.0933067 8.03149803,18.0933067 C6.2576089,18.0933067 4.81269921,16.6883945 4.81269921,14.968502 C4.81269921,13.2486095 6.25660896,11.8436973 8.03149803,11.8436973 Z M1.78188863,13.7815762 L3.25079683,13.7815762 C3.11780514,14.216549 3.03181051,14.648522 3.03181051,15.1254922 C3.03181051,17.7873258 5.28466971,19.9691894 8.03149803,19.9691894 C10.7773264,19.9691894 13.0001875,17.7863259 13.0001875,15.1254922 C13.0001875,14.648522 12.9141929,14.216549 12.7812012,13.7815762 L14.1871133,13.7815762 L14.1871133,20.5311543 C14.1871133,20.8811324 13.9121305,21.1561152 13.5621524,21.1561152 L2.40684957,21.1561152 C2.05687145,21.1561152 1.78188863,20.8811324 1.78188863,20.5311543 L1.78188863,13.7815762 L1.78188863,13.7815762 Z" id="Shape"></path>
                </g>
            </g>
        </g>
    </g>
</svg>