<?xml version="1.0" encoding="UTF-8" standalone="no"?>
<svg width="67px" height="67px" viewBox="0 0 67 67" version="1.1" xmlns="http://www.w3.org/2000/svg" xmlns:xlink="http://www.w3.org/1999/xlink">
    <!-- Generator: Sketch 47.1 (45422) - http://www.bohemiancoding.com/sketch -->
    <title>Group 6</title>
    <desc>Created with Sketch.</desc>
    <defs></defs>
    <g id="Page-1" stroke="none" stroke-width="1" fill="none" fill-rule="evenodd">
        <g id="04---1" transform="translate(-716.000000, -360.000000)">
            <g id="Group-6" transform="translate(718.000000, 362.000000)">
                <circle id="Oval-4-Copy-2" stroke="#FFFFFF" stroke-width="3" opacity="1" cx="31.5" cy="31.5" r="31.5"></circle>
                <path d="M25.4686328,21.0200403 C25.3164964,20.9895308 25.1339327,20.9895308 25.0122236,21.0505498 C23.3691503,21.69125 22.3346227,24.0404838 22.0912044,25.6574889 C21.3305224,30.9051281 25.4686328,35.4510482 29.2720431,38.4409821 C32.6494714,41.0953113 39.1304826,45.4581741 42.9643202,41.2478589 C43.4511567,40.7291969 44.0292751,39.9664586 43.9988478,39.2037204 C43.907566,37.9223201 42.7209019,37.0070342 41.8080835,36.305315 C41.108256,35.786653 39.6477464,34.3527051 38.7349279,34.3832146 C37.9133913,34.4137241 37.3961275,35.267991 36.8788637,35.786653 L35.9660452,36.7019389 C35.8139088,36.8544865 33.8665627,35.5730863 33.6535718,35.4205386 C32.8624624,34.9018766 32.1017804,34.3221955 31.4323801,33.6814954 C30.7629799,33.0407953 30.1544343,32.3390761 29.6371705,31.6068473 C29.4850341,31.3932806 28.2375155,29.5321993 28.3592246,29.3796516 C28.3592246,29.3796516 29.4241795,28.2202895 29.7284523,27.7626465 C30.3674253,26.7863415 30.8542618,26.0236033 30.124007,24.8642411 C29.8501615,24.4371077 29.5154614,24.1015029 29.150334,23.7353885 C28.511361,23.1251979 27.8723881,22.4844978 27.1421333,21.9658358 C26.7465787,21.6607405 26.0771784,21.1115689 25.4686328,21.0200403 Z" id="Shape" fill="#FFFFFF" fill-rule="nonzero" opacity="1"></path>
            </g>
        </g>
    </g>
</svg>
