<?xml version="1.0" encoding="UTF-8" standalone="no"?>
<svg width="16px" height="16px" viewBox="0 0 16 16" version="1.1" xmlns="http://www.w3.org/2000/svg" xmlns:xlink="http://www.w3.org/1999/xlink">
    <!-- Generator: Sketch 47.1 (45422) - http://www.bohemiancoding.com/sketch -->
    <title>Shape</title>
    <desc>Created with Sketch.</desc>
    <defs></defs>
    <g id="Page-1" stroke="none" stroke-width="1" fill="none" fill-rule="evenodd">
        <g id="10---1" transform="translate(-785.000000, -313.000000)" fill="#231F20">
            <g id="Group-2" transform="translate(785.000000, 307.000000)">
                <g id="Group-3" transform="translate(0.000000, 6.000000)">
                    <path d="M15,0 L1,0 C0.45,0 0,0.45 0,1 L0,15 C0,15.55 0.45,16 1,16 L15,16 C15.55,16 16,15.55 16,15 L16,1 C16,0.45 15.55,0 15,0 L15,0 Z M11,5 L10,5 C9.15,5 9,5 9,7 L11,7 L11,9 L9,9 L9,13 L7,13 L7,9 L5,9 L5,7 L7,7 C7,5.469 7,3 10,3 L11,3 L11,5 L11,5 Z" id="Shape"></path>
                </g>
            </g>
        </g>
    </g>
</svg>