<?xml version="1.0" encoding="UTF-8" standalone="no"?>
<svg width="67px" height="67px" viewBox="0 0 67 67" version="1.1" xmlns="http://www.w3.org/2000/svg" xmlns:xlink="http://www.w3.org/1999/xlink">
    <!-- Generator: Sketch 47.1 (45422) - http://www.bohemiancoding.com/sketch -->
    <title>Group 3</title>
    <desc>Created with Sketch.</desc>
    <defs></defs>
    <g id="Page-1" stroke="none" stroke-width="1" fill="none" fill-rule="evenodd">
        <g id="04---1" transform="translate(-716.000000, -580.000000)">
            <g id="Group-3" transform="translate(718.000000, 582.000000)">
                <g id="Group-2">
                    <g id="Group-8">
                        <circle id="Oval-4" stroke="#FFFFFF" stroke-width="3" opacity="1" cx="31.5" cy="31.5" r="31.5"></circle>
                        <path d="M42.5476804,24.6721529 C42.5476804,22.6443901 40.9032903,21 38.8755275,21 L22.6721529,21 C20.6443901,21 19,22.6443901 19,24.6721529 L19,35.5050039 C19,37.5327667 20.6443901,39.1771568 22.6721529,39.1771568 L36.9193717,39.1771568 L42.5476804,43.2624269 L42.5476804,35.53585 L42.5462116,35.53585 C42.5462116,35.525568 42.5476804,35.5152859 42.5476804,35.5050039 L42.5476804,24.6721529 Z M26.4665885,31.9705568 C25.6678952,31.9705568 25.0204947,31.322789 25.0204947,30.524463 C25.0204947,29.7261369 25.6678952,29.0783691 26.4665885,29.0783691 C27.2652817,29.0783691 27.9126823,29.7261369 27.9126823,30.524463 C27.9126823,31.322789 27.2649145,31.9705568 26.4665885,31.9705568 Z M30.9150345,31.9705568 C30.1167084,31.9705568 29.4689407,31.322789 29.4689407,30.524463 C29.4689407,29.7261369 30.1167084,29.0783691 30.9150345,29.0783691 C31.714095,29.0783691 32.3611283,29.7261369 32.3611283,30.524463 C32.3611283,31.322789 31.714095,31.9705568 30.9150345,31.9705568 Z M35.3638477,31.9705568 C34.5651545,31.9705568 33.9177539,31.322789 33.9177539,30.524463 C33.9177539,29.7261369 34.5651545,29.0783691 35.3638477,29.0783691 C36.162541,29.0783691 36.8099415,29.7261369 36.8099415,30.524463 C36.8099415,31.322789 36.162541,31.9705568 35.3638477,31.9705568 Z" id="Shape" fill="#FFFFFF" fill-rule="nonzero" opacity="1"></path>
                    </g>
                </g>
            </g>
        </g>
    </g>
</svg>
